<?xml version="1.0" encoding="utf-8"?>
<!-- Generator: Adobe Illustrator 25.0.1, SVG Export Plug-In . SVG Version: 6.00 Build 0)  -->
<svg version="1.0" id="Layer_1" xmlns="http://www.w3.org/2000/svg" xmlns:xlink="http://www.w3.org/1999/xlink" x="0px" y="0px"
	 viewBox="0 0 626 450" style="enable-background:new 0 0 626 450;" xml:space="preserve">
<style type="text/css">
	.st0{fill:#A1A1A1;}
	.st1{fill-rule:evenodd;clip-rule:evenodd;fill:#006677;}
	.st2{fill-rule:evenodd;clip-rule:evenodd;fill:#FFFFFF;}
	.st3{fill-rule:evenodd;clip-rule:evenodd;fill:#E45300;}
</style>
<g id="Layer_x5F_1">
	<path class="st0" d="M59.8,304.1c0,1,0,2.7,1.2,4.2c1.6,2.1,4.9,2.4,6.5,2.4c5.3,0,8.2-2.8,8.2-6.5c0-0.9-0.1-2.9-2.1-4.2
		c-1.2-0.8-1.8-0.9-6.7-2.2c-2.5-0.6-3.7-1.2-3.7-3.1c0-2.1,1.7-3.4,4.6-3.4c2,0,4.2,0.6,4.4,3.2h3c-0.1-0.9-0.1-2.3-1.3-3.5
		c-1.7-1.8-4.5-2-5.8-2c-3.9,0-7.9,1.9-7.9,6.1c0,1.4,0.5,2.9,2.2,4.1c1.1,0.7,2.5,1.1,5.7,1.9c2.9,0.7,4.8,1.2,4.8,3.5
		c0,1-0.5,3.7-4.9,3.7c-4.8,0-5-2.7-5-4.1L59.8,304.1L59.8,304.1z M90.4,303.5c0.1-2.4,0.2-8.1-6.3-8.1c-0.8,0-2.6,0.1-4,1.1
		c-2.3,1.6-2.8,3.9-2.8,6.8c0,4.6,2.2,7.4,6.7,7.4c2.9,0,4.3-1.2,5-1.9c1-1.1,1.2-2.3,1.2-3h-2.7c-0.2,2.1-1.6,3-3.4,3
		c-3,0-4.2-2.2-4.2-5.2L90.4,303.5L90.4,303.5z M80.1,301.6c0.1-3.2,2.2-4.3,4-4.3c3.3,0,3.6,2.9,3.6,4.3H80.1z M93.6,310.2h2.7
		v-7.7c0-2.5,0.7-4.4,4-4.4c0.3,0,0.6,0,0.8,0c0.2,0,0.4,0.1,0.5,0.1v-2.7c-0.5,0-1.1-0.1-1.9,0.1c-1.2,0.2-2.9,0.8-3.5,2.8
		l-0.1-2.8h-2.7c0.1,1,0.1,2,0.1,2.9L93.6,310.2L93.6,310.2z M107.6,310.2h2.7l6.3-14.5h-3l-4.5,11.5l-4.6-11.5h-3L107.6,310.2z
		 M118.5,292.4h3.3v-3h-3.3V292.4z M118.8,310.2h2.7v-14.5h-2.7V310.2z M125.9,310.2h2.7v-8.3c0-2.9,1.8-4.3,3.8-4.3
		c0.9,0,1.9,0.3,2.6,1c0.7,0.7,0.8,1.5,0.8,2.5v9.2h2.8v-9.8c0-4.4-4-4.9-5.2-4.9c-3.3,0-4.3,2-4.6,2.6l0-2.3h-2.7l0,1.7
		L125.9,310.2L125.9,310.2z M142.2,311.3c0.1,2,0.3,4.7,6.1,4.7c2,0,4.8-0.3,6-2.6c0.6-1.1,0.7-2.5,0.7-6l0-9l0.1-2.6h-2.6l0,2
		c-0.6-0.7-1.6-2.2-4.6-2.2c-3.5,0-6.4,2.4-6.4,7.3c0,1.9,0.4,3.9,1.6,5.3c1.2,1.5,3.1,1.8,4.4,1.8c0.9,0,3.6-0.1,4.8-2.5
		c0,3.9-0.1,6.7-3.8,6.7c-2.6,0-3.3-1.2-3.4-2.8L142.2,311.3L142.2,311.3z M148.2,307.9c-3.3,0-4-2.9-4-5.2c0-1.9,0.5-5.3,3.9-5.3
		c1.2,0,2.4,0.5,3.1,1.3c0.7,0.7,1.1,1.8,1.1,3.6c0,2.6-0.4,3.4-1,4.2C150.7,307.4,149.8,307.9,148.2,307.9z M164.7,297.7h2.6v9.7
		c0,2.4,1.2,3.1,3.7,3.1c1,0,1.8-0.1,2.2-0.2v-2.1c-0.2,0.1-0.7,0.1-1.3,0.1c-1.9,0-1.9-1.2-1.9-1.9v-8.7h3.2v-2h-3.2v-3.9l-2.7,0.9
		v3h-2.6V297.7z M175.5,310.2h2.7v-7.7c0-0.9,0-2.2,0.5-3.1c0.4-0.7,1.4-1.9,3.4-1.9c3.1,0,3.1,2.8,3.1,4.1v8.6h2.8v-9
		c0-2.1-0.2-2.8-0.5-3.4c-0.8-1.8-3-2.3-4.6-2.3c-2,0-3.8,0.9-4.7,2.4v-8.4h-2.7L175.5,310.2L175.5,310.2z M204.2,303.5
		c0.1-2.4,0.2-8.1-6.3-8.1c-0.8,0-2.6,0.1-4,1.1c-2.3,1.6-2.8,3.9-2.8,6.8c0,4.6,2.2,7.4,6.7,7.4c2.9,0,4.3-1.2,5-1.9
		c1-1.1,1.2-2.3,1.2-3h-2.7c-0.2,2.1-1.6,3-3.4,3c-3,0-4.2-2.2-4.2-5.2L204.2,303.5L204.2,303.5z M193.9,301.6
		c0.1-3.2,2.2-4.3,3.9-4.3c3.3,0,3.6,2.9,3.6,4.3H193.9z M230.7,295c-0.4-4.7-4.5-5.9-7.5-5.9c-7.4,0-9.1,6.6-9.1,10.9
		c0,4,1.4,10.5,8.7,10.5c3.6,0,7.4-1.7,7.8-5.8h-3.2c-0.1,0.5-0.3,1.4-1,2.2c-0.9,0.9-2.1,1.2-3.4,1.2c-4.8,0-5.9-4.2-5.9-8.2
		c0-3.5,0.9-8.6,5.9-8.6c4,0,4.4,2.9,4.5,3.6H230.7L230.7,295z M232.2,303.1c0,4.2,2.3,7.5,7.1,7.5c4.9,0,7.3-3.5,7.3-7.8
		c0-3-1.3-7.6-7.1-7.6C233.9,295.4,232.2,299.6,232.2,303.1z M235,303c0-4.5,2.8-5.6,4.5-5.6c2.5,0,4.2,1.9,4.2,5.5
		c0,4.3-2.3,5.8-4.4,5.8C236.3,308.7,235,305.9,235,303z M249.7,295.7v9.7c0,2.8,1.7,4.9,5.2,4.9c3.1,0,4.1-1.6,4.6-2.6l0.1,2.5h2.8
		c0-0.8-0.1-2.4-0.1-2.7v-11.8h-2.8v8.2c0,0.7,0,1.9-0.6,2.7c-0.8,1.2-2,1.6-3.4,1.6c-2.8,0-3.1-1.8-3.1-3.2v-9.3L249.7,295.7
		L249.7,295.7z M266.7,310.2h2.7v-8.3c0-2.9,1.8-4.3,3.8-4.3c0.9,0,1.9,0.3,2.6,1c0.7,0.7,0.8,1.5,0.8,2.5v9.2h2.8v-9.8
		c0-4.4-4-4.9-5.2-4.9c-3.3,0-4.3,2-4.6,2.6l0-2.3h-2.7l0,1.7L266.7,310.2L266.7,310.2z M281,297.7h2.6v9.7c0,2.4,1.2,3.1,3.7,3.1
		c1,0,1.8-0.1,2.2-0.2v-2.1c-0.2,0.1-0.7,0.1-1.3,0.1c-1.9,0-1.9-1.2-1.9-1.9v-8.7h3.2v-2h-3.2v-3.9l-2.7,0.9v3H281V297.7z
		 M292,310.2h2.7v-7.7c0-2.5,0.7-4.4,4-4.4c0.3,0,0.6,0,0.8,0c0.2,0,0.4,0.1,0.5,0.1v-2.7c-0.5,0-1.1-0.1-1.9,0.1
		c-1.2,0.2-2.9,0.8-3.5,2.8l-0.1-2.8h-2.7c0.1,1,0.1,2,0.1,2.9L292,310.2L292,310.2z M315.1,295.7h-2.9l-4.6,11.4l-4.5-11.4h-3.1
		l6,14.4l-2.2,5.5h2.8l2.1-5.4L315.1,295.7z M316.3,306.8l-1.9,7.1h2l3.2-7.1H316.3z M330.5,310.2h2.9v-9.3h3.4
		c3.7,0,5.2-0.7,6.3-1.8c1.1-1.1,1.6-2.5,1.6-4.1c0-1.6-0.5-3-1.5-4c-1.4-1.5-3.1-1.7-5.7-1.7h-7V310.2L330.5,310.2z M333.3,291.7h4
		c1.5,0,4.2,0,4.2,3.3c0,3.4-2.9,3.5-4.8,3.5h-3.4V291.7z M346.7,310.2h2.7v-7.7c0-2.5,0.7-4.4,4-4.4c0.3,0,0.6,0,0.8,0
		c0.2,0,0.4,0.1,0.5,0.1v-2.7c-0.5,0-1.1-0.1-1.9,0.1c-1.2,0.2-2.9,0.8-3.5,2.8l-0.1-2.8h-2.7c0.1,1,0.1,2,0.1,2.9L346.7,310.2
		L346.7,310.2z M356.5,292.4h3.3v-3h-3.3V292.4z M356.8,310.2h2.7v-14.5h-2.7V310.2z M373.9,297.7c-0.4-0.6-1.4-2.5-4.5-2.5
		c-3.4,0-6.5,2.4-6.5,7.9c0,6.3,4.3,7.4,6.2,7.4c1,0,2.4-0.3,3.6-1.1c0.7-0.5,1.1-1.1,1.3-1.5l0.1,2.3h2.7c-0.1-0.7-0.1-2-0.1-2.3
		v-18.4h-2.7L373.9,297.7L373.9,297.7z M373.9,302.8c0,1.1,0,5.8-4.3,5.8c-3.3,0-4-3-4-5.5c0-1,0-5.8,4-5.8c1.5,0,2.6,0.7,3.2,1.5
		C373.5,299.5,373.9,300.7,373.9,302.8z M392.5,303.5c0.1-2.4,0.2-8.1-6.3-8.1c-0.8,0-2.6,0.1-4,1.1c-2.3,1.6-2.8,3.9-2.8,6.8
		c0,4.6,2.2,7.4,6.7,7.4c2.9,0,4.3-1.2,5-1.9c1-1.1,1.2-2.3,1.2-3h-2.7c-0.2,2.1-1.6,3-3.4,3c-3,0-4.2-2.2-4.2-5.2L392.5,303.5
		L392.5,303.5z M382.2,301.6c0.1-3.2,2.2-4.3,4-4.3c3.3,0,3.6,2.9,3.6,4.3H382.2z M402.3,303.1c0,4.2,2.3,7.5,7.1,7.5
		c4.9,0,7.3-3.5,7.3-7.8c0-3-1.3-7.6-7.1-7.6C403.9,295.4,402.3,299.6,402.3,303.1z M405.1,303c0-4.5,2.8-5.6,4.5-5.6
		c2.5,0,4.2,1.9,4.2,5.5c0,4.3-2.3,5.8-4.4,5.8C406.4,308.7,405.1,305.9,405.1,303z M427.2,289.2c-0.6-0.1-1.4-0.2-2.2-0.2
		c-1.9,0-3,0.7-3.6,1.6c-0.5,0.7-0.6,1.5-0.6,3.5v1.6h-2.9v2h2.9v12.5h2.7v-12.5h3.4v-2h-3.4v-2.3c0-1,0-2.1,2.2-2.1
		c0.5,0,1.1,0,1.6,0.1V289.2L427.2,289.2z M434.2,297.7h2.6v9.7c0,2.4,1.2,3.1,3.7,3.1c1,0,1.8-0.1,2.2-0.2v-2.1
		c-0.2,0.1-0.7,0.1-1.3,0.1c-1.9,0-1.9-1.2-1.9-1.9v-8.7h3.2v-2h-3.2v-3.9l-2.7,0.9v3h-2.6L434.2,297.7L434.2,297.7z M445,310.2h2.7
		v-7.7c0-0.9,0-2.2,0.5-3.1c0.4-0.7,1.4-1.9,3.4-1.9c3.1,0,3.1,2.8,3.1,4.1v8.6h2.8v-9c0-2.1-0.2-2.8-0.5-3.4
		c-0.8-1.8-3-2.3-4.6-2.3c-2,0-3.8,0.9-4.7,2.4v-8.4H445L445,310.2L445,310.2z M473.7,303.5c0.1-2.4,0.2-8.1-6.3-8.1
		c-0.8,0-2.6,0.1-4,1.1c-2.3,1.6-2.8,3.9-2.8,6.8c0,4.6,2.2,7.4,6.7,7.4c2.9,0,4.3-1.2,5-1.9c1-1.1,1.2-2.3,1.2-3h-2.7
		c-0.2,2.1-1.6,3-3.4,3c-3,0-4.2-2.2-4.2-5.2L473.7,303.5L473.7,303.5z M463.4,301.6c0.1-3.2,2.2-4.3,3.9-4.3c3.3,0,3.6,2.9,3.6,4.3
		H463.4z M484.7,310.2h2.6v-17.7l10.6,17.7h3.7v-20.8H499v17.2l-10.2-17.2h-4L484.7,310.2L484.7,310.2z M517.3,310.2
		c-0.2-1.5-0.2-3.4-0.2-3.6l0.1-6.9c0-0.7,0-1.4-0.5-2.2c-0.8-1.5-3-2.1-5.1-2.1c-1.5,0-3.6,0.4-4.7,1.6c-0.8,1-0.9,2-1,2.7h2.7
		c0-0.6,0.2-2.5,2.9-2.5c0.8,0,2,0.2,2.5,1c0.5,0.6,0.5,1.4,0.5,3.2c-0.8-0.1-1.3-0.1-2-0.1c-1.2,0-3.5,0.1-5,1
		c-2.1,1.2-2.5,3.1-2.5,4.2c0,2.4,1.8,4.3,5.1,4.3c1.2,0,3.2-0.2,4.5-2.6c0,0.7,0.1,1.4,0.3,2.2H517.3L517.3,310.2z M514.5,303.2
		c-0.1,2-0.1,2.8-0.7,3.8c-0.7,1-1.7,1.6-3.1,1.6c-2.4,0-3-1.6-3-2.5c0-2.9,4.1-2.9,5.2-2.9C513.6,303.1,514,303.1,514.5,303.2z
		 M518.8,297.7h2.6v9.7c0,2.4,1.2,3.1,3.7,3.1c1,0,1.8-0.1,2.2-0.2v-2.1c-0.2,0.1-0.7,0.1-1.3,0.1c-1.9,0-1.9-1.2-1.9-1.9v-8.7h3.2
		v-2h-3.2v-3.9l-2.7,0.9v3h-2.6L518.8,297.7L518.8,297.7z M529.4,292.4h3.3v-3h-3.3V292.4z M529.7,310.2h2.7v-14.5h-2.7V310.2z
		 M535.7,303.1c0,4.2,2.3,7.5,7.1,7.5c4.9,0,7.3-3.5,7.3-7.8c0-3-1.3-7.6-7.1-7.6C537.3,295.4,535.7,299.6,535.7,303.1z M538.5,303
		c0-4.5,2.8-5.6,4.5-5.6c2.5,0,4.2,1.9,4.2,5.5c0,4.3-2.3,5.8-4.4,5.8C539.8,308.7,538.5,305.9,538.5,303z M553.5,310.2h2.7v-8.3
		c0-2.9,1.8-4.3,3.8-4.3c0.9,0,1.9,0.3,2.6,1c0.7,0.7,0.8,1.5,0.8,2.5v9.2h2.8v-9.8c0-4.4-4-4.9-5.2-4.9c-3.3,0-4.3,2-4.6,2.6l0-2.3
		h-2.7l0,1.7L553.5,310.2L553.5,310.2z"/>
	<path id="_719543696" class="st1" d="M365.4,134h31.5l76.8,103.5v-87.8c0-8.9-12.1-15.4-12.1-15.4h39.4c0,0-10.3,5.9-10.3,15.3
		v133.1c0,0-18.2-7.4-32-26.1c-13.8-18.7-65.5-86.3-65.5-86.3v89.4c0,6.4,10.8,14.3,10.8,14.3H365c0,0,10.8-5.9,10.8-13.8V151.1
		C375.9,139.3,365.4,134,365.4,134z M534.8,237.5v-87.9c0-8.9-12.2-15.5-12.2-15.5H569c0,0-10.4,5.9-10.4,15.3v109.3
		c0,8.4,9.9,15.3,9.9,15.3H524c0,0,10.9-6.7,10.9-13.6V237.5L534.8,237.5z M270.5,148.2v42.4h20.1c9.3,0,22.6-4.9,22.6-22.2
		c0-17.3-19.7-20.2-26.5-20.2H270.5z M270.5,204.4v55.2H297c10.3,0,29.5-8.9,29.5-26.1s-15.7-29.1-30.5-29.1L270.5,204.4
		L270.5,204.4z M236.1,134.1h68.1c15.2,0,32.6,13,32.6,30.8c0,24.2-18.5,27.4-18.5,27.4s32.4,7.9,32.4,38.9s-35.4,42.8-47.2,42.8
		l-68.3-0.2c0,0,11.8-6.1,11.8-16.5V150.9C247,140.1,236.1,134.1,236.1,134.1z"/>
	<g id="_719544824">
		<path class="st2" d="M57,274.1h140v-140H57V274.1z"/>
		<path class="st3" d="M57,134.1h43.7c-0.1,0.3-0.4,1.1-0.8,2.7c-1.9,7.4-4.7,28.8,14.5,60.1c4.7,7.7,9.3,13.9,14,19.9l-15.2,12.2
			C88,198,57,158.6,57,158.6V134.1z M57,187.5v86.6l42.4-34.2l-29.2-36.4L57,187.5z M197,178.7c-0.3-0.4-1.6-2.4-3.5-4.3
			c-5.8-6-18.4-15.6-33.5-7.4c-14,7.6-21.2,25-3.7,48c14.3,18.9,27.3,20.8,34.6,19.7c1.3-0.2,5.1-1.1,6.1-1.7L197,178.7L197,178.7z
			 M197,153.4v-19.2h-77.9c-0.1,0.3-0.7,1.5-0.9,3.5c-0.5,4.4-0.7,12.9,2.5,24.8c4.3,16.4,16.3,31.1,16.3,31.1s-1.2-16.3,13.8-31.4
			c9.5-9.5,20.3-12.5,29.1-12.4c3.1,0,5.9,0.5,8.4,1C189.3,151,196.2,153,197,153.4z M197,240c-0.4,0.3-1.2,0.8-2.6,1.8
			c-3.8,2.6-12,6.4-25.6,4.4c-12.3-1.9-24-10-34.8-22.7l-15.4,12.4c10.9,13.1,19.3,23.6,22.1,25.6c10.6,7.6,17.9,4.7,17.9,4.7
			l-9.8,8H197V240z M124.4,274.1H71l4.4-3.5l29.6-23.7c0,0,11.7,15.2,16.4,20.8c0.9,1.1,1.5,2.1,2,3
			C124.3,272.2,124.2,273.3,124.4,274.1z"/>
	</g>
</g>
</svg>
